# xmcd
#
# Track frame offsets: 
#        150
#        4684
#        27819
#        40879
#        46418
#        65086
#        91749
#        111787
#        128089
#        135549
#        153290
#        176178
#        187000
#        211121
#        223457
#
# Disc length: 3158 seconds
#
# Revision: 0
# Processed by: cddbd v1.5.2PL0 Copyright (c) Steve Scherf et al.
# Submitted via: ExactAudioCopy v0.95b4
#
DISCID=d20c540f
DTITLE=Pedro - You, Me and Everyone (jp ver.)
DYEAR=2007
DGENRE=Electronica
TTITLE0=Intro (Asleep)
TTITLE1=I Am Keeping Up
TTITLE2=Hallelujah
TTITLE3=There Will Always Be More
TTITLE4=Spools
TTITLE5=Lung
TTITLE6=Green Apples
TTITLE7=Red Apples
TTITLE8=Nothing But Pebbles
TTITLE9=Hope Is A Happiness
TTITLE10=Vitamins
TTITLE11=Sound Song
TTITLE12=You, Me and Everyone
TTITLE13=Outro (Awake)
TTITLE14=Slowly (bonus track)
EXTD=
EXTT0=
EXTT1=
EXTT2=
EXTT3=
EXTT4=
EXTT5=
EXTT6=
EXTT7=
EXTT8=
EXTT9=
EXTT10=
EXTT11=
EXTT12=
EXTT13=
EXTT14=
PLAYORDER=
